<svg>
  <symbol fill="none" xmlns="http://www.w3.org/2000/svg" viewBox="0 0 331 59" id="logo">
    <path d="M45.3056 42.9528C43.8652 41.1415 42.7848 38.396 43.099 34.4784C43.4404 30.6916 45.0982 27.1798 47.7443 24.6377C50.3904 22.0956 53.8322 20.7085 57.3887 20.7507C61.0971 20.7507 63.6715 22.0374 65.4108 24.0781C67.5102 26.5368 67.7554 29.5119 67.5485 32.0279C67.3097 36.0463 65.6332 39.812 62.867 42.543C60.1835 45.0794 56.6921 46.4172 53.1132 46.2802C49.8875 46.2802 47.2901 45.4033 45.3056 42.9528ZM50.6308 27.1761C48.5976 29.1368 47.3421 31.8548 47.1215 34.7735C47.008 35.7524 47.0856 36.7458 47.3493 37.6909C47.6131 38.6361 48.0573 39.5125 48.6539 40.2646C49.2826 41.0264 50.0637 41.6269 50.9392 42.0213C51.8147 42.4158 52.7621 42.5941 53.7109 42.543C54.8979 42.5538 56.075 42.3116 57.1735 41.8303C58.272 41.3491 59.2698 40.6385 60.1087 39.7401C62.0132 37.6743 63.1977 34.9724 63.4647 32.0853C63.5784 31.1344 63.5129 30.1688 63.272 29.2454C63.0312 28.322 62.62 27.4596 62.0625 26.7089C61.4265 25.974 60.6493 25.395 59.7844 25.0116C58.9194 24.6282 57.9871 24.4496 57.0515 24.4879C54.6714 24.4883 52.3788 25.4482 50.6308 27.1761Z" fill="#202349"></path>
    <path d="M74.1379 42.9528C72.6974 41.1415 71.6171 38.396 71.9312 34.4784C72.2727 30.6916 73.9305 27.1798 76.5766 24.6377C79.2227 22.0956 82.6645 20.7085 86.2209 20.7507C89.9294 20.7507 92.5038 22.0374 94.2431 24.0781C96.3348 26.5368 96.5877 29.5119 96.3808 32.0279C96.142 36.0463 94.4654 39.812 91.6993 42.543C89.0255 45.0695 85.5496 46.4066 81.9838 46.2802C78.7198 46.2802 76.1147 45.4033 74.1379 42.9528ZM79.463 27.1761C77.4298 29.1368 76.1744 31.8548 75.9538 34.7735C75.8403 35.7523 75.9178 36.7458 76.1816 37.6909C76.4454 38.6361 76.8896 39.5125 77.4862 40.2646C78.1149 41.0264 78.896 41.6269 79.7715 42.0213C80.647 42.4158 81.5944 42.5941 82.5432 42.543C83.7302 42.5538 84.9073 42.3116 86.0058 41.8303C87.1043 41.3491 88.1021 40.6385 88.941 39.7401C90.8455 37.6743 92.03 34.9724 92.2969 32.0853C92.4085 31.1333 92.3406 30.167 92.0971 29.2436C91.8536 28.3202 91.4396 27.4583 90.8795 26.7089C90.2434 25.974 89.4663 25.395 88.6013 25.0116C87.7364 24.6282 86.8041 24.4496 85.8685 24.4879C83.4936 24.4924 81.2072 25.452 79.463 27.1761Z" fill="#202349"></path>
    <path d="M112.241 2.99079L106.839 30.3315L116.915 21.3163H122.049L110.165 31.733L118.915 45.5755H113.896L107 34.5359L105.82 35.585L103.844 45.5755H99.913L108.341 2.95801L112.241 2.99079Z" fill="#202349"></path>
    <path d="M131.657 21.3163L126.891 45.5755H122.953L127.726 21.3163H131.657ZM129.611 10.2768C129.923 9.92137 130.301 9.63942 130.72 9.44892C131.14 9.25842 131.592 9.16355 132.048 9.17035C132.36 9.14539 132.675 9.19492 132.967 9.31538C133.26 9.43584 133.524 9.62422 133.741 9.86698C133.956 10.1291 134.116 10.4371 134.211 10.7706C134.306 11.1041 134.334 11.4554 134.293 11.8012C134.232 12.6973 133.85 13.5339 133.228 14.1369C132.927 14.4592 132.568 14.7131 132.173 14.8835C131.778 15.0539 131.355 15.1373 130.929 15.1286C130.593 15.1397 130.26 15.0721 129.951 14.9305C129.643 14.7889 129.367 14.5768 129.144 14.309C128.945 14.0619 128.797 13.7732 128.708 13.4613C128.62 13.1494 128.593 12.8213 128.63 12.4978C128.721 11.6672 129.066 10.892 129.611 10.2932V10.2768Z" fill="#202349"></path>
    <path d="M139.081 21.3163H143.012L142.46 24.1274C143.175 23.2407 144.009 22.4728 144.935 21.849C146.248 21.0698 147.733 20.6847 149.234 20.7344C150.195 20.672 151.159 20.8274 152.06 21.1904C152.962 21.5533 153.782 22.1156 154.467 22.8406C155.861 24.4798 155.999 26.4631 155.823 28.2744C155.674 29.6279 155.454 30.9714 155.164 32.2984L152.551 45.5754H148.644L150.942 33.4868C151.134 32.4951 151.525 30.4462 151.609 29.3398C151.711 28.7059 151.687 28.0564 151.541 27.4326C151.394 26.8088 151.128 26.2246 150.758 25.7173C150.355 25.2962 149.875 24.9694 149.347 24.7577C148.819 24.5461 148.256 24.4542 147.694 24.488C146.149 24.4549 144.652 25.0629 143.518 26.1845C141.847 27.881 141.173 30.7413 140.729 32.9049L138.246 45.5754H134.316L139.081 21.3163Z" fill="#202349"></path>
    <path d="M182.058 21.3162H185.988L181.391 44.9771C180.625 48.7717 179.897 52.5745 176.985 55.4922C175.376 57.1313 172.496 58.9999 167.852 58.9999C163.922 58.9999 161.684 57.5985 160.443 56.1314C158.206 53.4515 158.397 49.706 158.52 48.2472V47.8948H162.435V48.1325C162.297 49.829 162.29 51.9271 163.791 53.5662C164.409 54.1569 165.13 54.6104 165.912 54.9003C166.695 55.1901 167.524 55.3106 168.35 55.2545C170.506 55.3624 172.62 54.5922 174.265 53.099C176.457 50.9928 176.978 47.8948 177.384 45.7229L177.997 42.2152C177.092 43.5197 175.9 44.5644 174.526 45.2558C173.125 45.9375 171.606 46.295 170.067 46.3048C166.849 46.3048 164.473 45.2558 162.841 43.2069C160.704 40.6334 160.474 37.4699 160.673 35.0112C160.956 30.9983 162.56 27.2229 165.201 24.3568C167.551 21.9891 170.678 20.708 173.905 20.7917C175.614 20.7253 177.31 21.1288 178.832 21.9637C179.937 22.633 180.84 23.6252 181.437 24.824L182.058 21.3162ZM168.35 26.6926C166.23 28.7383 164.939 31.5869 164.749 34.6342C164.611 35.6866 164.676 36.7582 164.939 37.7829C165.203 38.8076 165.66 39.7638 166.282 40.5924C166.854 41.2411 167.552 41.7497 168.325 42.0835C169.099 42.4173 169.931 42.5685 170.764 42.5266C172.852 42.5718 174.887 41.8257 176.51 40.4203C178.633 38.4944 179.843 35.044 180.066 32.3558C180.268 30.2793 179.735 28.1971 178.571 26.5205C178.002 25.8263 177.292 25.2807 176.495 24.9255C175.698 24.5703 174.836 24.4151 173.974 24.4716C171.905 24.4449 169.9 25.2424 168.35 26.709V26.6926Z" fill="#202349"></path>
    <path d="M13.3702 34.3227L13.6077 33.0278L2.29857 33.4868L2.22961 33.8392L13.3702 34.3227Z" fill="#202349"></path>
    <path d="M27.3076 30.9625C27.3076 31.1428 27.3076 31.3231 27.3076 31.4952L38.6167 31.9705C38.6167 31.5772 38.655 31.151 38.655 30.7576C38.659 30.0433 38.6025 29.3301 38.4865 28.6267L26.9934 29.0857C27.2044 29.6855 27.3109 30.3216 27.3076 30.9625Z" fill="#202349"></path>
    <path d="M4.09143 23.6193L37.1301 25.0535L37.0842 24.9879C36.1891 23.6603 34.9428 22.6499 33.506 22.0867L4.16039 23.275L4.09143 23.6193Z" fill="#202349"></path>
    <path d="M26.0509 46.0426L0 45.9033L18.6034 46.8294C21.1053 46.8589 23.6027 46.595 26.0509 46.0426Z" fill="#202349"></path>
    <path d="M0.436634 43.7068L0.367676 44.0592L28.5487 45.2886C30.2837 44.6787 31.9179 43.7798 33.3911 42.625L33.6669 42.3955L0.436634 43.7068Z" fill="#202349"></path>
    <path d="M1.05736 40.2974L0.988403 40.658L33.9811 42.0841C35.0228 41.164 35.9226 40.0743 36.6475 38.855L1.05736 40.2974Z" fill="#202349"></path>
    <path d="M7.81531 3.18745L39.0764 4.53974C38.4674 3.70206 37.7129 2.99801 36.8544 2.46623C36.4281 2.19213 35.9853 1.94847 35.5289 1.73682L7.8766 2.84323L7.81531 3.18745Z" fill="#202349"></path>
    <path d="M27.8514 9.19501C28.3921 9.63222 28.7718 10.2589 28.9241 10.9653L40.5245 11.4816C40.5761 10.9945 40.6042 10.5048 40.6087 10.0146C40.6078 9.43299 40.5668 8.85226 40.4861 8.2771L27.2921 8.81801C27.489 8.92507 27.6762 9.05127 27.8514 9.19501Z" fill="#202349"></path>
    <path d="M4.78112 19.8658L4.71216 20.2182L33.5751 21.4721C35.1439 20.8786 36.5464 19.8691 37.6513 18.5381L4.78112 19.8658Z" fill="#202349"></path>
    <path d="M28.1274 15.5793C27.9097 15.9337 27.6524 16.2585 27.3612 16.5464C26.8067 17.0741 26.1576 17.4757 25.4534 17.7266L37.9272 18.2675C38.0957 18.0462 38.2566 17.8249 38.4175 17.5954C38.9386 16.8336 39.3733 16.0082 39.7124 15.1367L28.1274 15.5793Z" fill="#202349"></path>
    <path d="M16.4658 17.2923L16.7033 16.0056L5.39418 16.4646L5.33289 16.8088L16.4658 17.2923Z" fill="#202349"></path>
    <path d="M6.63539 9.65378L6.5741 9.998L17.7147 10.4815L17.9522 9.19482L6.63539 9.65378Z" fill="#202349"></path>
    <path d="M29.0392 12.1208C29.0402 12.8939 28.9184 13.6616 28.6791 14.391L39.766 14.8746C40.1522 13.8443 40.4099 12.7641 40.5322 11.6619L29.0392 12.1208Z" fill="#202349"></path>
    <path d="M17.094 13.8828L17.3315 12.6042L6.01467 13.0632L5.95337 13.3992L17.094 13.8828Z" fill="#202349"></path>
    <path d="M7.25588 6.25275L7.19458 6.56418L40.4325 8.03121C40.2622 6.92487 39.8814 5.86768 39.3138 4.92505L7.25588 6.25275Z" fill="#202349"></path>
    <path d="M33.054 0.827143C30.5039 0.224711 27.8957 -0.0504187 25.2847 0.00757628L8.55847 0.622251L33.054 0.827143Z" fill="#202349"></path>
    <path d="M25.8748 35.9129C25.6778 36.1757 25.4598 36.4197 25.2235 36.6423C24.457 37.349 23.5545 37.8667 22.5801 38.1585L36.6936 38.7732C37.2943 37.7274 37.7607 36.5999 38.0804 35.4211L25.8748 35.9129Z" fill="#202349"></path>
    <path d="M3.53224 26.6764L3.47095 27.0534L14.6039 27.5369L14.8184 26.3813H21.4537C23.4229 26.3813 24.894 26.7583 25.8518 27.5041C26.0511 27.6656 26.2335 27.8497 26.3958 28.0532L38.4481 28.5696C38.2586 27.4177 37.8576 26.3174 37.2682 25.3323L3.53224 26.6764Z" fill="#202349"></path>
    <path d="M12.7496 37.7322L12.9871 36.4373L1.67797 36.8962L1.60901 37.2486L12.7496 37.7322Z" fill="#202349"></path>
    <path d="M2.91918 30.0857L2.85022 30.4381L13.9908 30.9216L14.2207 29.6267L2.91918 30.0857Z" fill="#202349"></path>
    <path d="M27.208 32.4789C27.1094 33.3363 26.8708 34.1685 26.5031 34.9376L38.0804 35.4375C38.3737 34.3335 38.5535 33.1985 38.6167 32.0527L27.208 32.4789Z" fill="#202349"></path>
    <path d="M203.986 5.2937C206.99 5.2937 210.423 5.47401 212.874 8.15399C213.689 9.07062 214.297 10.1737 214.652 11.3794C215.008 12.5851 215.102 13.8616 214.928 15.1121C214.675 18.2019 213.779 21.1277 211.357 23.4061C209.113 25.4076 206.341 26.6108 203.427 26.8483L211.564 44.2641H206.645L198.922 27.2007H197.88L194.524 44.2641H190.478L198.14 5.3019L203.986 5.2937ZM198.623 23.3242H201.19C202.883 23.3242 205.948 23.2012 208.086 21.2753C209.601 19.8715 210.542 17.8884 210.706 15.7514C210.951 12.7681 209.718 11.1946 208.683 10.498C207.649 9.80132 205.274 9.38334 203.642 9.38334H201.343L198.623 23.3242Z" fill="#FF6B00"></path>
    <path d="M237.623 38.0683C236.388 40.0276 234.83 41.73 233.026 43.0923C231 44.3855 228.672 45.0338 226.314 44.9609C223.64 44.9609 221.119 44.4364 219.081 41.9203C217.84 40.4041 216.422 37.7159 216.782 33.2165C217.093 29.2411 218.778 25.5326 221.51 22.8162C222.599 21.6995 223.884 20.8253 225.291 20.2443C226.699 19.6632 228.2 19.3869 229.708 19.4314C233.539 19.4314 235.646 20.8902 236.841 22.2917C238.335 24.1029 239.592 27.4304 238.535 32.987H220.912C220.575 36.4292 221.51 38.3552 222.406 39.4124C222.959 40.0354 223.634 40.5205 224.382 40.8335C225.13 41.1465 225.934 41.2797 226.735 41.2237C228.322 41.2679 229.884 40.7995 231.217 39.8796C232.507 38.8582 233.606 37.5879 234.458 36.1342L237.623 38.0683ZM235.048 29.5121C235.101 28.6443 234.992 27.7742 234.729 26.9514C234.466 26.1287 234.054 25.3695 233.516 24.7176C232.974 24.1874 232.338 23.7798 231.646 23.5193C230.953 23.2587 230.218 23.1506 229.486 23.2014C228.546 23.1605 227.607 23.3206 226.726 23.6724C225.845 24.0243 225.037 24.5607 224.352 25.2503C223.187 26.4213 222.314 27.8867 221.816 29.5121H235.048Z" fill="#FF6B00"></path>
    <path d="M247.07 20.0133H251.001L250.441 22.8162C251.166 21.937 252.001 21.1701 252.924 20.5378C254.237 19.7608 255.722 19.3784 257.222 19.4314C258.184 19.3691 259.147 19.5244 260.049 19.8874C260.951 20.2503 261.771 20.8127 262.455 21.5377C263.85 23.1768 263.988 25.152 263.812 26.9632C263.663 28.3195 263.443 29.6658 263.153 30.9955L260.509 44.2643H256.579L258.977 32.1675C259.168 31.1758 259.551 29.1269 259.643 28.0204C259.745 27.3866 259.722 26.737 259.575 26.1132C259.429 25.4895 259.162 24.9053 258.793 24.398C258.39 23.9768 257.909 23.65 257.381 23.4384C256.854 23.2267 256.291 23.1348 255.728 23.1686C254.183 23.1355 252.687 23.7435 251.552 24.8651C249.882 26.5616 249.208 29.4219 248.763 31.5856L246.235 44.2643H242.304L247.07 20.0133Z" fill="#FF6B00"></path>
    <path d="M275.971 23.8733L271.949 44.2641H268.018L272.002 23.8733H269.604L270.37 20.0131H272.768L274.462 11.252H278.4L276.699 20.0131H280.63L279.863 23.8733H275.971Z" fill="#FF6B00"></path>
    <path d="M280.875 39.9369C281.468 39.3295 282.26 38.9943 283.082 39.0026C283.406 38.9891 283.73 39.0494 284.031 39.1794C284.332 39.3093 284.604 39.506 284.829 39.7566C285.042 40.031 285.2 40.3494 285.294 40.6919C285.387 41.0345 285.414 41.394 285.373 41.7481C285.328 42.2063 285.196 42.6499 284.985 43.0516C284.775 43.4533 284.489 43.8046 284.147 44.0839C283.569 44.5738 282.853 44.8396 282.116 44.8379C281.784 44.8557 281.453 44.7977 281.144 44.6677C280.835 44.5377 280.555 44.3387 280.323 44.0839C280.125 43.8256 279.977 43.5266 279.89 43.2053C279.803 42.8841 279.779 42.5472 279.818 42.2153C279.893 41.3415 280.27 40.5291 280.875 39.9369Z" fill="#202349"></path>
    <path d="M296.866 20.0132H300.804L300.26 22.644C300.905 21.6682 301.755 20.8681 302.742 20.3082C303.768 19.708 304.922 19.4056 306.091 19.4313C307.244 19.3869 308.381 19.734 309.339 20.4229L306.734 24.2175C306.087 23.6539 305.27 23.3624 304.436 23.398C303.282 23.3738 302.166 23.8326 301.325 24.6765C299.609 26.3156 299.026 29.0612 298.528 31.4543L296.03 44.2641H292.1L296.866 20.0132Z" fill="#202349"></path>
    <path d="M314.389 32.7903C314.174 33.8315 314.015 34.885 313.914 35.9456C313.783 37.5274 313.837 38.8633 314.948 39.9779C315.861 40.8143 317.034 41.2531 318.235 41.2072C319.618 41.2168 320.958 40.6963 322.012 39.7402C323.438 38.3387 323.89 36.1833 324.441 33.4377L327.069 19.9968H331L328.28 33.9295C327.636 37.1422 327 40.2319 324.794 42.453C322.919 44.1735 320.505 45.0723 318.036 44.969C314.971 44.969 312.971 44.1495 311.607 42.748C309.998 41.1089 309.669 39.0681 309.876 36.6094C309.968 35.4457 310.343 33.5197 310.542 32.4624L312.979 20.0214H316.91L314.389 32.7903Z" fill="#202349"></path>
  </symbol>
  <symbol fill="none" xmlns="http://www.w3.org/2000/svg" viewBox="0 0 24 24" id="WhatsApp">
    <path d="M12 24C18.6274 24 24 18.6274 24 12C24 5.37258 18.6274 0 12 0C5.37258 0 0 5.37258 0 12C0 18.6274 5.37258 24 12 24Z" fill="#25D366"></path>
    <path fill-rule="evenodd" clip-rule="evenodd" d="M12.3955 18.6762H12.3926C11.1983 18.6757 10.0249 18.3761 8.98267 17.8076L5.2 18.7999L6.2123 15.1023C5.58786 14.0202 5.25929 12.7926 5.25982 11.535C5.26139 7.60075 8.46241 4.3999 12.3955 4.3999C14.3043 4.40073 16.0959 5.14384 17.4431 6.49261C18.7903 7.84131 19.5318 9.63407 19.5311 11.5407C19.5295 15.474 16.3297 18.6746 12.3955 18.6762ZM9.15793 16.5158L9.3745 16.6444C10.2851 17.1847 11.3289 17.4707 12.3931 17.4711H12.3955C15.6644 17.4711 18.325 14.8105 18.3263 11.5402C18.3269 9.95551 17.7106 8.46544 16.5908 7.3444C15.4711 6.22335 13.982 5.60567 12.3979 5.60512C9.12646 5.60512 6.46588 8.26546 6.46459 11.5354C6.46413 12.6561 6.77768 13.7475 7.37137 14.6917L7.51238 14.9161L6.91324 17.1047L9.15793 16.5158ZM15.7462 13.0769C15.8706 13.137 15.9545 13.1776 15.9904 13.2375C16.0349 13.3118 16.0349 13.6688 15.8864 14.0853C15.7378 14.5018 15.0255 14.8819 14.6829 14.9331C14.3758 14.979 13.9871 14.9982 13.56 14.8624C13.301 14.7803 12.9689 14.6706 12.5435 14.4868C10.8721 13.7651 9.74251 12.1451 9.52902 11.8389C9.51407 11.8175 9.50361 11.8025 9.49777 11.7947L9.49633 11.7928C9.40198 11.6669 8.76975 10.8233 8.76975 9.95029C8.76975 9.12902 9.17317 8.69856 9.35887 8.50041C9.37159 8.48684 9.38329 8.47435 9.39377 8.46291C9.55719 8.28441 9.75036 8.23978 9.86922 8.23978C9.98806 8.23978 10.1071 8.24088 10.2109 8.2461C10.2238 8.24674 10.2371 8.24666 10.2509 8.24658C10.3548 8.24597 10.4843 8.24521 10.6121 8.55216C10.6612 8.67028 10.7332 8.8454 10.809 9.0301C10.9625 9.40361 11.132 9.81629 11.1618 9.87601C11.2064 9.96526 11.2361 10.0693 11.1767 10.1884C11.1677 10.2062 11.1595 10.2231 11.1516 10.2392C11.107 10.3303 11.0741 10.3973 10.9984 10.4858C10.9686 10.5206 10.9378 10.5581 10.907 10.5956C10.8457 10.6703 10.7843 10.745 10.7309 10.7982C10.6417 10.8871 10.5488 10.9835 10.6528 11.162C10.7568 11.3405 11.1146 11.9244 11.6446 12.3971C12.2144 12.9054 12.7096 13.1201 12.9606 13.229C13.0096 13.2503 13.0493 13.2675 13.0784 13.2821C13.2567 13.3714 13.3607 13.3564 13.4647 13.2375C13.5687 13.1185 13.9104 12.7168 14.0292 12.5384C14.1481 12.3599 14.267 12.3897 14.4304 12.4491C14.5938 12.5087 15.4704 12.94 15.6487 13.0292C15.6835 13.0466 15.716 13.0624 15.7462 13.0769Z" fill="#FDFDFD"></path>
  </symbol>
   <symbol fill="none" xmlns="http://www.w3.org/2000/svg" viewBox="0 0 40 40" id="Bag">
    <g id="Iconly/Light/Bag">
      <g id="Bag">
        <path id="Path_33955" fill-rule="evenodd" clip-rule="evenodd" d="M27.5229 35.8334H13.6099C8.49925 35.8334 4.57858 33.9875 5.69223 26.558L6.98895 16.4894C7.67545 12.7823 10.0401 11.3635 12.1148 11.3635H29.079C31.1842 11.3635 33.4115 12.8891 34.2048 16.4894L35.5015 26.558C36.4474 33.1484 32.6335 35.8334 27.5229 35.8334Z" stroke="black" stroke-width="3" stroke-linecap="round" stroke-linejoin="round"></path>
        <path id="Path_33956" d="M27.7517 10.9973C27.7517 7.02052 24.5279 3.7967 20.5511 3.7967V3.7967C18.6361 3.78858 16.7967 4.54363 15.4398 5.89489C14.0828 7.24614 13.32 9.08229 13.32 10.9973H13.32" stroke="black" stroke-width="3" stroke-linecap="round" stroke-linejoin="round"></path>
        <path id="Line_192" d="M25.4939 18.503H25.4176" stroke="black" stroke-width="3" stroke-linecap="round" stroke-linejoin="round"></path>
        <path id="Line_193" d="M15.7761 18.503H15.6999" stroke="black" stroke-width="3" stroke-linecap="round" stroke-linejoin="round"></path>
      </g>
    </g>
  </symbol>
  <symbol fill="none" xmlns="http://www.w3.org/2000/svg" viewBox="0 0 34 34" id="k">
    <path d="M17.5089 17.766H14.9089V23.666H12.3489V9.66601H14.9089V15.526H17.5889L21.6089 9.66601H24.3689L19.5889 16.446L24.5489 23.666H21.6089L17.5089 17.766Z" fill="black"></path>
    <circle cx="17" cy="17" r="15.5" stroke="black" stroke-width="3"></circle>
  </symbol>
  <symbol fill="none" xmlns="http://www.w3.org/2000/svg" viewBox="0 0 40 40" id="search">
    <ellipse cx="19.611" cy="19.2998" rx="14.9809" ry="14.7431" stroke="black" stroke-width="3" stroke-linecap="round" stroke-linejoin="round"></ellipse>
    <path d="M30.0305 30.3196L35.9039 36.0847" stroke="black" stroke-width="3" stroke-linecap="round" stroke-linejoin="round"></path>
  </symbol>
    <symbol fill="none" xmlns="http://www.w3.org/2000/svg" viewBox="0 0 17 17" id="exit">
    <path d="M16 1L1 16" stroke="white" stroke-width="2" stroke-linecap="round" stroke-linejoin="round"></path>
    <path d="M1 1L16 16" stroke="white" stroke-width="2" stroke-linecap="round" stroke-linejoin="round"></path>
  </symbol>
    <symbol fill="none" xmlns="http://www.w3.org/2000/svg" viewBox="0 0 21 20" id="arrow_up">
    <path opacity="0.8" d="M10.5734 7.50083C10.3787 7.50045 10.19 7.56826 10.0401 7.69249L5.04006 11.8592C4.86988 12.0006 4.76286 12.2039 4.74254 12.4242C4.72222 12.6446 4.79028 12.864 4.93172 13.0342C5.07317 13.2043 5.27643 13.3114 5.49679 13.3317C5.71714 13.352 5.93654 13.2839 6.10672 13.1425L10.5734 9.40916L15.0401 13.0092C15.1253 13.0784 15.2234 13.1301 15.3287 13.1613C15.4339 13.1925 15.5444 13.2025 15.6535 13.1909C15.7627 13.1793 15.8686 13.1462 15.9649 13.0936C16.0613 13.0409 16.1463 12.9698 16.2151 12.8842C16.2914 12.7985 16.3492 12.698 16.3848 12.5889C16.4205 12.4798 16.4332 12.3646 16.4223 12.2504C16.4113 12.1361 16.3769 12.0254 16.3212 11.9251C16.2654 11.8248 16.1896 11.7371 16.0984 11.6675L11.0984 7.6425C10.9442 7.5379 10.7593 7.48802 10.5734 7.50083Z" fill="black" fill-opacity="0.8"></path>
  </symbol>
    <symbol fill="none" xmlns="http://www.w3.org/2000/svg" viewBox="0 0 20 20" id="arrow_down">
    <g opacity="0.8">
      <path opacity="0.8" d="M10 13.3334C9.80532 13.3338 9.61662 13.266 9.46669 13.1417L4.46669 8.97507C4.29651 8.83362 4.18949 8.63036 4.16918 8.41C4.14886 8.18965 4.21691 7.97025 4.35836 7.80007C4.49981 7.62989 4.70307 7.52287 4.92342 7.50255C5.14378 7.48223 5.36318 7.55028 5.53336 7.69173L10 11.4251L14.4667 7.82507C14.5519 7.75585 14.65 7.70415 14.7553 7.67296C14.8606 7.64177 14.971 7.63169 15.0802 7.6433C15.1894 7.65492 15.2952 7.688 15.3916 7.74065C15.4879 7.79329 15.5729 7.86446 15.6417 7.95007C15.718 8.03575 15.7758 8.13627 15.8115 8.24533C15.8471 8.3544 15.8599 8.46965 15.8489 8.58387C15.838 8.69809 15.8036 8.80881 15.7478 8.90911C15.6921 9.00941 15.6162 9.09711 15.525 9.16673L10.525 13.1917C10.3708 13.2963 10.1859 13.3462 10 13.3334Z" fill="black"></path>
    </g>
  </symbol>
    <symbol fill="none" xmlns="http://www.w3.org/2000/svg" viewBox="0 0 30 30" id="search_white">
    <ellipse cx="14.7082" cy="14.4748" rx="11.2357" ry="11.0574" stroke="white" stroke-width="2" stroke-linecap="round" stroke-linejoin="round"></ellipse>
    <path d="M22.5229 22.7397L26.9279 27.0636" stroke="white" stroke-width="2" stroke-linecap="round" stroke-linejoin="round"></path>
  </symbol>
  <symbol fill="none" xmlns="http://www.w3.org/2000/svg" viewBox="0 0 24 24" id="Facebook">
    <path fill-rule="evenodd" clip-rule="evenodd" d="M0 12C0 5.37258 5.37258 0 12 0C18.6274 0 24 5.37258 24 12C24 18.6274 18.6274 24 12 24C5.37258 24 0 18.6274 0 12ZM13.2508 19.0557V12.5271H15.053L15.2918 10.2773H13.2508L13.2538 9.15125C13.2538 8.56447 13.3096 8.25006 14.1524 8.25006H15.279V6H13.4766C11.3116 6 10.5495 7.0914 10.5495 8.92678V10.2776H9.2V12.5274H10.5495V19.0557H13.2508Z" fill="white"></path>
  </symbol>
  <symbol fill="none" xmlns="http://www.w3.org/2000/svg" viewBox="0 0 24 24" id="Instagram">
    <path fill-rule="evenodd" clip-rule="evenodd" d="M0 12C0 5.37258 5.37258 0 12 0C18.6274 0 24 5.37258 24 12C24 18.6274 18.6274 24 12 24C5.37258 24 0 18.6274 0 12ZM12.0006 5.6C10.2624 5.6 10.0443 5.6076 9.36164 5.63867C8.6803 5.66987 8.21523 5.77773 7.80829 5.936C7.38735 6.09947 7.03028 6.31814 6.67454 6.67401C6.31854 7.02975 6.09987 7.38682 5.93587 7.80762C5.7772 8.21469 5.6692 8.6799 5.63853 9.36097C5.608 10.0436 5.6 10.2619 5.6 12.0001C5.6 13.7382 5.60773 13.9557 5.63867 14.6384C5.67 15.3197 5.77787 15.7848 5.936 16.1917C6.09961 16.6126 6.31827 16.9697 6.67414 17.3255C7.02975 17.6815 7.38682 17.9007 7.80749 18.0641C8.21469 18.2224 8.6799 18.3303 9.36111 18.3615C10.0438 18.3925 10.2618 18.4001 11.9998 18.4001C13.7381 18.4001 13.9556 18.3925 14.6382 18.3615C15.3196 18.3303 15.7852 18.2224 16.1924 18.0641C16.6132 17.9007 16.9697 17.6815 17.3253 17.3255C17.6813 16.9697 17.9 16.6126 18.064 16.1918C18.2213 15.7848 18.3293 15.3196 18.3613 14.6385C18.392 13.9558 18.4 13.7382 18.4 12.0001C18.4 10.2619 18.392 10.0438 18.3613 9.36111C18.3293 8.67977 18.2213 8.21469 18.064 7.80776C17.9 7.38682 17.6813 7.02975 17.3253 6.67401C16.9693 6.31801 16.6133 6.09934 16.192 5.936C15.784 5.77773 15.3186 5.66987 14.6373 5.63867C13.9546 5.6076 13.7373 5.6 11.9986 5.6H12.0006Z" fill="white"></path>
    <path fill-rule="evenodd" clip-rule="evenodd" d="M11.4265 6.75335C11.5969 6.75308 11.787 6.75335 12.0006 6.75335C13.7094 6.75335 13.912 6.75948 14.5868 6.79015C15.2108 6.81868 15.5494 6.92295 15.775 7.01055C16.0737 7.12655 16.2866 7.26522 16.5105 7.48922C16.7345 7.71322 16.8732 7.92656 16.9895 8.22523C17.0771 8.45056 17.1815 8.78923 17.2099 9.41324C17.2405 10.0879 17.2472 10.2906 17.2472 11.9986C17.2472 13.7066 17.2405 13.9093 17.2099 14.584C17.1813 15.208 17.0771 15.5466 16.9895 15.772C16.8735 16.0706 16.7345 16.2833 16.5105 16.5072C16.2865 16.7312 16.0738 16.8699 15.775 16.9859C15.5497 17.0739 15.2108 17.1779 14.5868 17.2064C13.9121 17.2371 13.7094 17.2437 12.0006 17.2437C10.2916 17.2437 10.0891 17.2371 9.41444 17.2064C8.79043 17.1776 8.45176 17.0733 8.22603 16.9857C7.92736 16.8697 7.71402 16.731 7.49002 16.507C7.26602 16.283 7.12735 16.0702 7.01108 15.7714C6.92348 15.5461 6.81908 15.2074 6.79068 14.5834C6.76001 13.9088 6.75388 13.7061 6.75388 11.997C6.75388 10.2879 6.76001 10.0863 6.79068 9.41164C6.81921 8.78763 6.92348 8.44896 7.01108 8.22336C7.12708 7.92469 7.26602 7.71136 7.49002 7.48735C7.71402 7.26335 7.92736 7.12468 8.22603 7.00841C8.45163 6.92041 8.79043 6.81641 9.41444 6.78775C10.0048 6.76108 10.2336 6.75308 11.4265 6.75175V6.75335ZM15.4169 7.81602C14.9929 7.81602 14.6489 8.15963 14.6489 8.58376C14.6489 9.00777 14.9929 9.35177 15.4169 9.35177C15.8409 9.35177 16.1849 9.00777 16.1849 8.58376C16.1849 8.15976 15.8409 7.81602 15.4169 7.81602ZM12.0006 8.71337C10.1855 8.71337 8.7139 10.185 8.7139 12.0001C8.7139 13.8152 10.1855 15.2861 12.0006 15.2861C13.8157 15.2861 15.2868 13.8152 15.2868 12.0001C15.2868 10.185 13.8157 8.71337 12.0006 8.71337Z" fill="white"></path>
    <path fill-rule="evenodd" clip-rule="evenodd" d="M12.0006 9.86671C13.1787 9.86671 14.134 10.8218 14.134 12.0001C14.134 13.1782 13.1787 14.1334 12.0006 14.1334C10.8223 14.1334 9.86724 13.1782 9.86724 12.0001C9.86724 10.8218 10.8223 9.86671 12.0006 9.86671Z" fill="white"></path>
  </symbol>
  <symbol fill="none" xmlns="http://www.w3.org/2000/svg" viewBox="0 0 24 24" id="vk">
    <path fill-rule="evenodd" clip-rule="evenodd" d="M0 12C0 5.37258 5.37258 0 12 0C18.6274 0 24 5.37258 24 12C24 18.6274 18.6274 24 12 24C5.37258 24 0 18.6274 0 12ZM12.6278 15.938C12.6278 15.938 12.8588 15.9128 12.9771 15.788C13.0854 15.6737 13.0816 15.458 13.0816 15.458C13.0816 15.458 13.0672 14.4508 13.5437 14.3021C14.0132 14.1559 14.6161 15.2761 15.2559 15.7069C15.7392 16.0326 16.1061 15.9613 16.1061 15.9613L17.8158 15.938C17.8158 15.938 18.7098 15.8839 18.286 15.1938C18.2509 15.1373 18.0387 14.6831 17.0151 13.7503C15.9427 12.7738 16.0867 12.9317 17.3776 11.2424C18.1639 10.2137 18.4782 9.58563 18.3799 9.31708C18.2866 9.06021 17.7081 9.12842 17.7081 9.12842L15.7837 9.14009C15.7837 9.14009 15.6409 9.12104 15.5351 9.18311C15.4318 9.24395 15.3648 9.3859 15.3648 9.3859C15.3648 9.3859 15.0606 10.1817 14.6543 10.8589C13.7972 12.2871 13.4548 12.3627 13.3145 12.2742C12.9884 12.0671 13.0697 11.4433 13.0697 11.0003C13.0697 9.61574 13.2839 9.0387 12.6534 8.88937C12.4443 8.83959 12.2903 8.80702 11.755 8.80149C11.0683 8.79473 10.4873 8.80395 10.158 8.96188C9.93888 9.06697 9.76984 9.30171 9.87314 9.31523C10.0002 9.33183 10.2882 9.39143 10.441 9.59546C10.6382 9.85909 10.6313 10.4503 10.6313 10.4503C10.6313 10.4503 10.7446 12.08 10.3665 12.2822C10.1073 12.4211 9.75169 12.1378 8.98728 10.8417C8.596 10.178 8.30051 9.44428 8.30051 9.44428C8.30051 9.44428 8.24354 9.30725 8.14149 9.2335C8.01816 9.14439 7.846 9.11674 7.846 9.11674L6.01731 9.12842C6.01731 9.12842 5.74247 9.13579 5.64168 9.25317C5.55216 9.35702 5.63479 9.57272 5.63479 9.57272C5.63479 9.57272 7.06657 12.8611 8.68803 14.5184C10.1749 16.0375 11.8627 15.938 11.8627 15.938H12.6278Z" fill="white"></path>
  </symbol>
  <symbol fill="none" xmlns="http://www.w3.org/2000/svg" viewBox="0 0 50 34" id="mastercard">
    <path d="M30.2166 6.79967L19.4572 6.83667L19.7832 26.5344L30.5426 26.4974L30.2166 6.79967Z" fill="#FF5F00"></path>
    <path d="M20.1654 16.7249C20.0988 12.7186 21.8935 9.15876 24.7046 6.84969C22.5827 5.18464 19.9226 4.18339 17.039 4.19327C10.2075 4.21667 4.77371 9.8445 4.88891 16.7773C5.00412 23.71 10.6243 29.3 17.4558 29.2766C20.3394 29.2667 22.966 28.2474 25.0323 26.568C22.1453 24.3133 20.2319 20.7313 20.1654 16.7249Z" fill="#EB001B"></path>
    <path d="M45.1108 16.5562C45.226 23.489 39.7922 29.1168 32.9608 29.1402C30.0771 29.1501 27.417 28.1489 25.2951 26.4838C28.1406 24.1746 29.901 20.6149 29.8344 16.6086C29.7678 12.6022 27.855 9.05508 24.9674 6.76553C27.0337 5.08614 29.6603 4.06678 32.5439 4.05691C39.3754 4.03351 44.9962 9.65832 45.1108 16.5562Z" fill="#F79E1B"></path>
  </symbol>
  <symbol fill="none" xmlns="http://www.w3.org/2000/svg" viewBox="0 0 70 47" id="mir">
    <path d="M58.17 14.8833H46.9395C47.5937 18.5905 51.1918 22.0796 55.117 22.0796H64.0578C64.1669 21.7525 64.1669 21.2073 64.1669 20.8802C64.1669 17.6092 61.441 14.8833 58.17 14.8833Z" fill="url(#paint0_linear)"></path>
    <path d="M47.9205 22.7336V31.7835H53.3723V26.986H58.1698C60.7866 26.986 63.0763 25.1324 63.8395 22.7336H47.9205Z" fill="#4FAD50"></path>
    <path d="M28.7304 14.8833V31.6746H33.5279C33.5279 31.6746 34.7273 31.6746 35.3815 30.4752C38.6525 24.0422 39.6338 22.0796 39.6338 22.0796H40.288V31.6746H45.7397V14.8833H40.9422C40.9422 14.8833 39.7428 14.9923 39.0886 16.0827C36.3628 21.6434 34.8363 24.4783 34.8363 24.4783H34.1821V14.8833H28.7304Z" fill="#4FAD50"></path>
    <path d="M5.83336 31.7839V14.9927H11.2851C11.2851 14.9927 12.8116 14.9927 13.6838 17.3914C15.8645 23.7154 16.0826 24.5877 16.0826 24.5877C16.0826 24.5877 16.5187 23.0612 18.4813 17.3914C19.3536 14.9927 20.8801 14.9927 20.8801 14.9927H26.3318V31.7839H20.8801V22.7341H20.2259L17.1729 31.7839H14.7742L11.7212 22.7341H11.067V31.7839H5.83336Z" fill="#4FAD50"></path>
    <defs>
      <linearGradient id="paint0_linear" x1="46.92" y1="18.533" x2="64.1283" y2="18.533" gradientUnits="userSpaceOnUse">
        <stop stop-color="#27B1E6"></stop>
        <stop offset="1" stop-color="#148ACA"></stop>
      </linearGradient>
    </defs>
  </symbol>
  <symbol fill="none" xmlns="http://www.w3.org/2000/svg" viewBox="0 0 70 47" id="visa">
    <path d="M60.2438 14.6348H56.5767C55.468 14.6348 54.6152 14.9759 54.1035 16.0846L47.1103 32.0324H52.0567C52.0567 32.0324 52.9095 29.9004 53.0801 29.3887C53.5918 29.3887 58.4529 29.3887 59.1352 29.3887C59.3057 29.9856 59.7321 31.9471 59.7321 31.9471H64.1668L60.2438 14.6348ZM54.4446 25.8068C54.871 24.7834 56.3208 20.9457 56.3208 20.9457C56.3208 21.031 56.7473 19.9223 56.9178 19.3253L57.259 20.8604C57.259 20.8604 58.1971 25.0392 58.3676 25.8921H54.4446V25.8068Z" fill="white"></path>
    <path d="M47.4513 26.3182C47.4513 29.9001 44.2106 32.288 39.1789 32.288C37.0469 32.288 35.0001 31.8616 33.8914 31.3499L34.5737 27.4269L35.1706 27.6828C36.7057 28.365 37.7291 28.6209 39.6053 28.6209C40.9699 28.6209 42.4197 28.1092 42.4197 26.9152C42.4197 26.1477 41.8227 25.636 39.9465 24.7831C38.1555 23.9303 35.7676 22.5658 35.7676 20.0926C35.7676 16.6813 39.0936 14.3787 43.7842 14.3787C45.5751 14.3787 47.1102 14.7198 48.0483 15.1462L47.3661 18.8986L47.0249 18.5575C46.1721 18.2164 45.0634 17.8752 43.4431 17.8752C41.6521 17.9605 40.7993 18.7281 40.7993 19.4103C40.7993 20.1779 41.8227 20.7749 43.4431 21.5424C46.1721 22.8216 47.4513 24.2714 47.4513 26.3182Z" fill="white"></path>
    <path d="M5.83334 14.8052L5.91863 14.4641H13.2529C14.2763 14.4641 15.0439 14.8052 15.2997 15.9139L16.9201 23.5894C15.2997 19.4958 11.5473 16.1698 5.83334 14.8052Z" fill="white"></path>
    <path d="M27.2393 14.6348L19.8197 31.9472H14.788L10.5239 17.4492C13.5941 19.4107 16.1526 22.4808 17.0907 24.6129L17.6024 26.4038L22.2076 14.5496H27.2393V14.6348Z" fill="white"></path>
    <path d="M29.2008 14.5496H33.8914L30.9065 31.9472H26.2159L29.2008 14.5496Z" fill="white"></path>
  </symbol>
  <symbol fill="none" xmlns="http://www.w3.org/2000/svg" viewBox="0 0 224 37" id="logo_footer">
    <g clip-path="url(#clip0)">
      <path d="M30.66 26.9279C29.6852 25.7922 28.9541 24.0707 29.1667 21.6143C29.3978 19.2399 30.5196 17.0379 32.3104 15.4439C34.1011 13.85 36.4303 12.9802 38.8371 13.0067C41.3467 13.0067 43.0889 13.8135 44.2659 15.0931C45.6867 16.6347 45.8526 18.5002 45.7126 20.0778C45.551 22.5974 44.4164 24.9586 42.5445 26.671C40.7284 28.2614 38.3656 29.1002 35.9437 29.0143C33.7608 29.0143 32.003 28.4645 30.66 26.9279ZM34.2637 17.0356C32.8878 18.265 32.0382 19.9693 31.8889 21.7993C31.8121 22.4131 31.8646 23.036 32.0431 23.6287C32.2216 24.2213 32.5222 24.7708 32.9259 25.2424C33.3514 25.7201 33.88 26.0966 34.4725 26.3439C35.065 26.5912 35.7061 26.703 36.3482 26.671C37.1515 26.6778 37.9481 26.5259 38.6915 26.2241C39.4349 25.9224 40.1101 25.4768 40.6778 24.9135C41.9666 23.6182 42.7683 21.9241 42.9489 20.1138C43.0259 19.5175 42.9815 18.9121 42.8186 18.3331C42.6556 17.7541 42.3773 17.2133 42 16.7427C41.5696 16.2818 41.0437 15.9188 40.4583 15.6784C39.873 15.438 39.2421 15.326 38.6089 15.35C36.9982 15.3503 35.4467 15.9521 34.2637 17.0356Z" fill="white"></path>
      <path d="M50.1719 26.9279C49.1971 25.7922 48.466 24.0707 48.6785 21.6143C48.9096 19.2399 50.0315 17.0379 51.8222 15.4439C53.613 13.85 55.9421 12.9802 58.3489 13.0067C60.8586 13.0067 62.6008 13.8135 63.7778 15.0931C65.1934 16.6347 65.3645 18.5002 65.2245 20.0778C65.0628 22.5974 63.9283 24.9586 62.0563 26.671C60.2469 28.2552 57.8946 29.0936 55.4815 29.0143C53.2726 29.0143 51.5097 28.4645 50.1719 26.9279ZM53.7756 17.0356C52.3996 18.265 51.55 19.9693 51.4008 21.7993C51.3239 22.4131 51.3764 23.036 51.5549 23.6287C51.7334 24.2213 52.0341 24.7708 52.4378 25.2424C52.8633 25.7201 53.3919 26.0966 53.9843 26.3439C54.5768 26.5912 55.2179 26.703 55.86 26.671C56.6633 26.6778 57.4599 26.5259 58.2033 26.2241C58.9467 25.9224 59.622 25.4768 60.1897 24.9135C61.4785 23.6182 62.2801 21.9241 62.4608 20.1138C62.5363 19.5168 62.4903 18.911 62.3255 18.332C62.1608 17.753 61.8806 17.2125 61.5015 16.7427C61.0711 16.2818 60.5452 15.9188 59.9598 15.6784C59.3745 15.438 58.7436 15.326 58.1104 15.35C56.5032 15.3529 54.9559 15.9545 53.7756 17.0356Z" fill="white"></path>
      <path d="M75.9578 1.87065L72.3022 19.014L79.1207 13.3612H82.5948L74.5526 19.8927L80.4741 28.5723H77.0778L72.4111 21.6502L71.6126 22.308L70.2748 28.5723H67.6148L73.3185 1.8501L75.9578 1.87065Z" fill="white"></path>
      <path d="M89.097 13.3612L85.8719 28.5723H83.2067L86.437 13.3612H89.097ZM87.7126 6.43915C87.9237 6.2163 88.1794 6.03952 88.4633 5.92007C88.7472 5.80062 89.0531 5.74113 89.3615 5.7454C89.5732 5.72975 89.7858 5.76081 89.9839 5.83634C90.1821 5.91187 90.3609 6.02999 90.5074 6.1822C90.6529 6.34656 90.7613 6.5397 90.8257 6.74879C90.8901 6.95789 90.9088 7.17815 90.8808 7.39498C90.8396 7.9569 90.5815 8.48147 90.16 8.85956C89.9563 9.06162 89.7135 9.22084 89.4462 9.32769C89.1789 9.43453 88.8926 9.4868 88.6045 9.48137C88.3774 9.48832 88.1516 9.44592 87.9429 9.35714C87.7342 9.26836 87.5476 9.13536 87.3963 8.96748C87.2619 8.81251 87.1616 8.63148 87.1018 8.43593C87.042 8.24038 87.024 8.03462 87.0489 7.83179C87.1101 7.31101 87.3434 6.82494 87.7126 6.44943V6.43915Z" fill="white"></path>
      <path d="M94.1215 13.3613H96.7815L96.4081 15.1239C96.8918 14.568 97.4562 14.0865 98.083 13.6953C98.9713 13.2068 99.9764 12.9653 100.992 12.9964C101.643 12.9574 102.295 13.0548 102.905 13.2824C103.515 13.5099 104.07 13.8625 104.533 14.3171C105.477 15.3449 105.57 16.5885 105.451 17.7242C105.35 18.5729 105.201 19.4153 105.005 20.2474L103.237 28.5724H100.593L102.148 20.9926C102.278 20.3708 102.542 19.086 102.599 18.3923C102.668 17.9948 102.652 17.5875 102.553 17.1964C102.454 16.8053 102.274 16.439 102.024 16.1209C101.751 15.8568 101.426 15.6519 101.069 15.5192C100.711 15.3865 100.33 15.3289 99.9496 15.3501C98.9043 15.3293 97.8915 15.7106 97.1237 16.4138C95.9933 17.4776 95.537 19.271 95.2363 20.6277L93.5563 28.5724H90.8963L94.1215 13.3613Z" fill="white"></path>
      <path d="M123.205 13.3611H125.865L122.754 28.1971C122.236 30.5764 121.743 32.9609 119.773 34.7903C118.684 35.8181 116.734 36.9898 113.592 36.9898C110.932 36.9898 109.418 36.111 108.578 35.1911C107.064 33.5107 107.193 31.1623 107.276 30.2475V30.0266H109.926V30.1756C109.833 31.2393 109.827 32.5549 110.844 33.5827C111.261 33.9531 111.749 34.2374 112.279 34.4192C112.809 34.6009 113.369 34.6764 113.929 34.6413C115.388 34.709 116.818 34.226 117.932 33.2898C119.415 31.9691 119.767 30.0266 120.042 28.6648L120.457 26.4653C119.845 27.2833 119.038 27.9383 118.108 28.3718C117.16 28.7993 116.132 29.0234 115.09 29.0296C112.913 29.0296 111.305 28.3718 110.201 27.0871C108.754 25.4735 108.599 23.4899 108.733 21.9482C108.925 19.4321 110.011 17.0648 111.798 15.2677C113.388 13.783 115.504 12.9798 117.688 13.0323C118.845 12.9906 119.993 13.2436 121.022 13.7671C121.77 14.1868 122.381 14.8089 122.785 15.5606L123.205 13.3611ZM113.929 16.7323C112.494 18.0149 111.62 19.8011 111.492 21.7118C111.398 22.3717 111.442 23.0436 111.62 23.6862C111.799 24.3287 112.108 24.9282 112.529 25.4478C112.917 25.8545 113.388 26.1734 113.912 26.3827C114.435 26.592 114.998 26.6868 115.562 26.6606C116.975 26.6889 118.353 26.2211 119.451 25.3399C120.887 24.1323 121.707 21.9688 121.857 20.2832C121.994 18.9812 121.633 17.6756 120.846 16.6243C120.461 16.189 119.98 15.8469 119.441 15.6242C118.901 15.4015 118.318 15.3042 117.735 15.3396C116.334 15.3229 114.978 15.8229 113.929 16.7425V16.7323Z" fill="white"></path>
      <path d="M9.04814 21.5165L9.20888 20.7046L1.55555 20.9924L1.50888 21.2133L9.04814 21.5165Z" fill="white"></path>
      <path d="M18.48 19.4097C18.48 19.5227 18.48 19.6358 18.48 19.7437L26.1334 20.0417C26.1334 19.7951 26.1593 19.5278 26.1593 19.2812C26.1619 18.8333 26.1238 18.3861 26.0452 17.9451L18.2674 18.2328C18.4102 18.6089 18.4823 19.0078 18.48 19.4097Z" fill="white"></path>
      <path d="M2.76886 14.8052L25.1274 15.7045L25.0963 15.6634C24.4905 14.831 23.6471 14.1974 22.6748 13.8442L2.81553 14.5894L2.76886 14.8052Z" fill="white"></path>
      <path d="M17.6296 28.8652L0 28.7778L12.5896 29.3585C14.2828 29.377 15.9728 29.2116 17.6296 28.8652Z" fill="white"></path>
      <path d="M0.295538 27.4008L0.248871 27.6218L19.32 28.3926C20.4942 28.0102 21.6001 27.4466 22.597 26.7225L22.7837 26.5786L0.295538 27.4008Z" fill="white"></path>
      <path d="M0.715551 25.2628L0.668884 25.489L22.9963 26.3831C23.7012 25.8062 24.3102 25.123 24.8007 24.3584L0.715551 25.2628Z" fill="white"></path>
      <path d="M5.28891 1.99406L26.4445 2.84197C26.0323 2.31673 25.5217 1.87527 24.9408 1.54183C24.6522 1.36997 24.3526 1.21718 24.0437 1.08447L5.33039 1.77822L5.28891 1.99406Z" fill="white"></path>
      <path d="M18.8481 5.76086C19.214 6.035 19.4709 6.42791 19.574 6.87086L27.4244 7.19461C27.4594 6.88916 27.4784 6.58214 27.4814 6.27475C27.4808 5.91007 27.453 5.54594 27.3985 5.1853L18.4696 5.52447C18.6028 5.5916 18.7295 5.67073 18.8481 5.76086Z" fill="white"></path>
      <path d="M3.2356 12.4516L3.18893 12.6726L22.7215 13.4589C23.7832 13.0867 24.7323 12.4537 25.48 11.6191L3.2356 12.4516Z" fill="white"></path>
      <path d="M19.0348 9.76407C18.8875 9.98633 18.7134 10.19 18.5163 10.3705C18.141 10.7014 17.7018 10.9532 17.2252 11.1105L25.6667 11.4496C25.7807 11.3109 25.8896 11.1721 25.9985 11.0282C26.3512 10.5505 26.6453 10.033 26.8748 9.48657L19.0348 9.76407Z" fill="white"></path>
      <path d="M11.143 10.8381L11.3037 10.0312L3.6504 10.319L3.60892 10.5349L11.143 10.8381Z" fill="white"></path>
      <path d="M4.49033 6.04852L4.44885 6.26435L11.9881 6.56755L12.1489 5.76074L4.49033 6.04852Z" fill="white"></path>
      <path d="M19.6518 7.59539C19.6525 8.08014 19.5701 8.56147 19.4081 9.01887L26.9111 9.32206C27.1725 8.67606 27.3468 7.99875 27.4296 7.30762L19.6518 7.59539Z" fill="white"></path>
      <path d="M11.5681 8.7001L11.7289 7.89844L4.07035 8.18622L4.02887 8.39691L11.5681 8.7001Z" fill="white"></path>
      <path d="M4.91041 3.916L4.86893 4.11127L27.3623 5.03113C27.247 4.33743 26.9893 3.67455 26.6052 3.0835L4.91041 3.916Z" fill="white"></path>
      <path d="M22.3689 0.514001C20.6432 0.136261 18.8781 -0.0362525 17.1112 0.000111843L5.7919 0.385529L22.3689 0.514001Z" fill="white"></path>
      <path d="M17.5104 22.5137C17.377 22.6784 17.2296 22.8315 17.0696 22.971C16.5509 23.4142 15.9402 23.7387 15.2807 23.9217L24.8318 24.3071C25.2384 23.6514 25.554 22.9445 25.7704 22.2053L17.5104 22.5137Z" fill="white"></path>
      <path d="M2.39036 16.7222L2.34888 16.9586L9.88295 17.2618L10.0281 16.5372H14.5185C15.8511 16.5372 16.8467 16.7736 17.4948 17.2412C17.6297 17.3424 17.7532 17.4579 17.863 17.5855L26.0192 17.9093C25.891 17.187 25.6196 16.4971 25.2207 15.8794L2.39036 16.7222Z" fill="white"></path>
      <path d="M8.62813 23.6542L8.78887 22.8423L1.13553 23.1301L1.08887 23.351L8.62813 23.6542Z" fill="white"></path>
      <path d="M1.97553 18.8598L1.92886 19.0808L9.46812 19.384L9.62368 18.572L1.97553 18.8598Z" fill="white"></path>
      <path d="M18.4126 20.3602C18.3459 20.8978 18.1844 21.4197 17.9355 21.9019L25.7703 22.2154C25.9688 21.5231 26.0905 20.8114 26.1333 20.093L18.4126 20.3602Z" fill="white"></path>
      <path d="M138.045 3.3147C140.078 3.3147 142.401 3.42775 144.06 5.10817C144.611 5.68292 145.022 6.37457 145.263 7.13057C145.504 7.88657 145.568 8.68701 145.45 9.47109C145.278 11.4084 144.672 13.243 143.033 14.6716C141.514 15.9266 139.638 16.681 137.667 16.83L143.173 27.7501H139.844L134.618 17.0509H133.913L131.641 27.7501H128.904L134.089 3.31984L138.045 3.3147ZM134.416 14.6203H136.153C137.298 14.6203 139.373 14.5432 140.819 13.3355C141.845 12.4554 142.481 11.2119 142.593 9.87192C142.758 8.00136 141.924 7.0147 141.224 6.57789C140.524 6.14109 138.916 5.879 137.812 5.879H136.256L134.416 14.6203Z" fill="white"></path>
      <path d="M160.808 23.8652C159.973 25.0937 158.918 26.1612 157.697 27.0154C156.326 27.8263 154.751 28.2327 153.155 28.1871C151.345 28.1871 149.639 27.8582 148.26 26.2805C147.42 25.3298 146.461 23.6443 146.704 20.823C146.915 18.3304 148.055 16.005 149.904 14.3018C150.641 13.6016 151.511 13.0535 152.463 12.6891C153.415 12.3248 154.431 12.1515 155.452 12.1794C158.044 12.1794 159.47 13.0941 160.279 13.9729C161.29 15.1086 162.141 17.195 161.425 20.6791H149.499C149.271 22.8375 149.904 24.0451 150.51 24.708C150.885 25.0986 151.341 25.4028 151.848 25.5991C152.354 25.7954 152.898 25.8789 153.44 25.8437C154.514 25.8715 155.571 25.5777 156.473 25.0009C157.346 24.3605 158.09 23.564 158.667 22.6525L160.808 23.8652ZM159.066 18.5002C159.101 17.9562 159.028 17.4105 158.85 16.8947C158.672 16.3788 158.393 15.9028 158.029 15.494C157.662 15.1616 157.232 14.906 156.763 14.7426C156.294 14.5793 155.797 14.5115 155.301 14.5433C154.665 14.5176 154.03 14.6181 153.434 14.8387C152.837 15.0593 152.291 15.3956 151.827 15.828C151.039 16.5622 150.448 17.4811 150.111 18.5002H159.066Z" fill="white"></path>
      <path d="M167.201 12.5442H169.861L169.483 14.3017C169.973 13.7504 170.539 13.2695 171.163 12.8731C172.052 12.3858 173.057 12.1461 174.072 12.1793C174.723 12.1402 175.374 12.2377 175.985 12.4652C176.595 12.6928 177.15 13.0454 177.613 13.5C178.557 14.5278 178.65 15.7663 178.531 16.9019C178.431 17.7524 178.282 18.5965 178.085 19.4303L176.296 27.7501H173.636L175.259 20.1651C175.389 19.5433 175.648 18.2586 175.71 17.5649C175.779 17.1674 175.763 16.7601 175.664 16.369C175.565 15.9779 175.385 15.6116 175.135 15.2935C174.862 15.0294 174.537 14.8245 174.18 14.6918C173.823 14.5591 173.441 14.5015 173.061 14.5226C172.015 14.5019 171.003 14.8831 170.235 15.5864C169.104 16.6501 168.648 18.4436 168.347 19.8003L166.636 27.7501H163.976L167.201 12.5442Z" fill="white"></path>
      <path d="M186.76 14.9647L184.038 27.7502H181.378L184.074 14.9647H182.451L182.97 12.5443H184.593L185.739 7.05078H188.404L187.253 12.5443H189.913L189.394 14.9647H186.76Z" fill="white"></path>
      <path d="M190.079 25.0369C190.48 24.6561 191.016 24.4459 191.572 24.4511C191.791 24.4427 192.01 24.4805 192.214 24.562C192.418 24.6434 192.602 24.7668 192.754 24.9239C192.898 25.096 193.006 25.2956 193.069 25.5104C193.132 25.7252 193.15 25.9506 193.122 26.1726C193.092 26.4599 193.003 26.7381 192.86 26.9899C192.718 27.2418 192.524 27.4621 192.293 27.6372C191.902 27.9444 191.417 28.1111 190.919 28.11C190.694 28.1212 190.47 28.0848 190.26 28.0033C190.051 27.9218 189.862 27.797 189.705 27.6372C189.571 27.4753 189.471 27.2878 189.412 27.0864C189.353 26.8849 189.337 26.6736 189.363 26.4655C189.414 25.9177 189.669 25.4082 190.079 25.0369Z" fill="white"></path>
      <path d="M200.9 12.5442H203.565L203.197 14.1938C203.634 13.582 204.209 13.0803 204.877 12.7292C205.571 12.3529 206.352 12.1633 207.143 12.1794C207.924 12.1516 208.693 12.3692 209.342 12.8012L207.579 15.1805C207.141 14.8271 206.587 14.6443 206.023 14.6666C205.243 14.6514 204.487 14.9391 203.918 15.4683C202.756 16.496 202.362 18.2176 202.025 19.7181L200.335 27.7502H197.675L200.9 12.5442Z" fill="white"></path>
      <path d="M212.759 20.5557C212.613 21.2086 212.506 21.8692 212.437 22.5342C212.349 23.526 212.385 24.3637 213.137 25.0625C213.755 25.587 214.549 25.8622 215.361 25.8334C216.297 25.8394 217.204 25.513 217.918 24.9135C218.882 24.0348 219.188 22.6832 219.562 20.9617L221.34 12.5339H224L222.159 21.27C221.724 23.2845 221.293 25.2219 219.8 26.6145C218.531 27.6933 216.897 28.2569 215.227 28.1921C213.153 28.1921 211.799 27.6782 210.876 26.7995C209.787 25.7717 209.564 24.4921 209.704 22.9505C209.767 22.2207 210.021 21.0131 210.156 20.3502L211.804 12.5494H214.464L212.759 20.5557Z" fill="white"></path>
    </g>
    <defs>
      <clipPath id="clip0">
        <rect width="224" height="37" fill="white"></rect>
      </clipPath>
    </defs>
  </symbol>
</svg>