<svg width="224" height="37" fill="none" xmlns="http://www.w3.org/2000/svg"><g clip-path="url(#a)" fill="#fff"><path d="M30.66 26.928c-.975-1.136-1.706-2.857-1.493-5.314a9.493 9.493 0 0 1 3.143-6.17 9.658 9.658 0 0 1 6.527-2.437c2.51 0 4.252.806 5.429 2.086 1.42 1.542 1.587 3.407 1.447 4.985a9.786 9.786 0 0 1-3.169 6.593 9.51 9.51 0 0 1-6.6 2.343c-2.183 0-3.941-.55-5.284-2.086Zm3.604-9.892a7.171 7.171 0 0 0-2.375 4.763 4.434 4.434 0 0 0 1.037 3.443c.425.478.954.855 1.546 1.102a4.32 4.32 0 0 0 1.876.327c.803.007 1.6-.145 2.343-.447a6.05 6.05 0 0 0 1.987-1.31 7.92 7.92 0 0 0 2.27-4.8A4.463 4.463 0 0 0 42 16.743a4.391 4.391 0 0 0-1.542-1.065 4.427 4.427 0 0 0-1.85-.328 6.43 6.43 0 0 0-4.344 1.686Zm15.908 9.892c-.975-1.136-1.706-2.857-1.493-5.314a9.493 9.493 0 0 1 3.143-6.17 9.658 9.658 0 0 1 6.527-2.437c2.51 0 4.252.806 5.429 2.086 1.415 1.542 1.587 3.407 1.447 4.985a9.786 9.786 0 0 1-3.169 6.593 9.509 9.509 0 0 1-6.575 2.343c-2.208 0-3.971-.55-5.31-2.086Zm3.604-9.892a7.17 7.17 0 0 0-2.375 4.763 4.432 4.432 0 0 0 1.037 3.443c.425.478.954.855 1.546 1.102a4.32 4.32 0 0 0 1.876.327c.803.007 1.6-.145 2.343-.447a6.05 6.05 0 0 0 1.987-1.31 7.92 7.92 0 0 0 2.27-4.8 4.462 4.462 0 0 0-.959-3.371 4.391 4.391 0 0 0-1.541-1.065 4.427 4.427 0 0 0-1.85-.328 6.435 6.435 0 0 0-4.334 1.686ZM75.958 1.87l-3.656 17.144 6.819-5.653h3.474l-8.042 6.532 5.921 8.68h-3.396L72.41 21.65l-.798.658-1.338 6.264h-2.66L73.319 1.85l2.639.02Zm13.139 11.491-3.225 15.211h-2.665l3.23-15.21h2.66ZM87.713 6.44a2.22 2.22 0 0 1 1.649-.694 1.448 1.448 0 0 1 1.145.437 1.537 1.537 0 0 1 .374 1.213 2.182 2.182 0 0 1-.721 1.465 2.143 2.143 0 0 1-1.555.621 1.568 1.568 0 0 1-1.209-.514 1.465 1.465 0 0 1-.347-1.135 2.363 2.363 0 0 1 .664-1.383v-.01Zm6.408 6.921h2.66l-.373 1.763a7.445 7.445 0 0 1 1.675-1.429 5.677 5.677 0 0 1 2.909-.699 4.674 4.674 0 0 1 1.913.286c.61.228 1.165.58 1.628 1.035.944 1.028 1.037 2.271.918 3.407-.101.849-.25 1.691-.446 2.523l-1.768 8.325h-2.644l1.555-7.58c.13-.621.394-1.906.451-2.6a2.871 2.871 0 0 0-.575-2.271 2.752 2.752 0 0 0-2.074-.77 4.065 4.065 0 0 0-2.826 1.063c-1.13 1.064-1.587 2.857-1.888 4.214l-1.68 7.944h-2.66l3.225-15.21Zm29.084 0h2.66l-3.111 14.836c-.518 2.38-1.011 4.764-2.981 6.593-1.089 1.028-3.039 2.2-6.181 2.2-2.66 0-4.174-.879-5.014-1.799-1.514-1.68-1.385-4.029-1.302-4.944v-.22h2.65v.149c-.093 1.063-.099 2.379.918 3.407a4.263 4.263 0 0 0 3.085 1.059 5.804 5.804 0 0 0 4.003-1.352c1.483-1.32 1.835-3.263 2.11-4.625l.415-2.2a6.208 6.208 0 0 1-2.349 1.907 7.449 7.449 0 0 1-3.018.658c-2.177 0-3.785-.658-4.889-1.943-1.447-1.613-1.602-3.597-1.468-5.139a10.62 10.62 0 0 1 3.065-6.68 8.337 8.337 0 0 1 5.89-2.236 6.813 6.813 0 0 1 3.334.735 4.5 4.5 0 0 1 1.763 1.794l.42-2.2Zm-9.276 3.371a7.337 7.337 0 0 0-2.437 4.98 4.839 4.839 0 0 0 1.037 3.736 3.949 3.949 0 0 0 3.033 1.213 6.022 6.022 0 0 0 3.889-1.321c1.436-1.208 2.256-3.371 2.406-5.057a5.196 5.196 0 0 0-1.011-3.659 3.826 3.826 0 0 0-1.405-1 3.86 3.86 0 0 0-1.706-.284 5.67 5.67 0 0 0-3.806 1.402v-.01ZM9.048 21.517l.16-.812-7.652.287-.047.221 7.54.303Zm9.432-2.107v.334l7.653.298c0-.247.026-.514.026-.76a7.37 7.37 0 0 0-.114-1.337l-7.778.288c.143.376.215.775.213 1.177ZM2.769 14.805l22.358.9-.03-.042a5.182 5.182 0 0 0-2.422-1.819l-19.86.745-.046.216Zm14.861 14.06L0 28.778l12.59.58a23.38 23.38 0 0 0 5.04-.493ZM.296 27.4l-.047.222 19.071.77a11.786 11.786 0 0 0 3.277-1.67l.187-.143L.296 27.4Zm.42-2.137-.047.226 22.327.894a8.658 8.658 0 0 0 1.805-2.025l-24.085.905ZM5.289 1.994l21.156.848a5.205 5.205 0 0 0-1.504-1.3 7.673 7.673 0 0 0-.897-.458L5.33 1.778l-.041.216ZM18.848 5.76c.366.275.623.668.726 1.11l7.85.325a7.224 7.224 0 0 0-.026-2.01l-8.928.34c.133.067.26.146.378.236ZM3.236 12.452l-.047.22 19.532.787a6.662 6.662 0 0 0 2.759-1.84l-22.244.833Zm15.799-2.688a3.277 3.277 0 0 1-.519.607 3.71 3.71 0 0 1-1.29.74l8.44.339c.115-.14.224-.278.332-.422.353-.478.647-.995.877-1.541l-7.84.277Zm-7.892 1.074.16-.807-7.653.288-.041.216 7.534.303ZM4.49 6.049l-.041.215 7.54.304.16-.807-7.659.288Zm15.162 1.546c0 .485-.082.966-.244 1.424l7.503.303a7.864 7.864 0 0 0 .519-2.014l-7.778.287ZM11.568 8.7l.16-.802-7.658.288-.041.21 7.54.304ZM4.91 3.916l-.041.195 22.493.92a5.112 5.112 0 0 0-.757-1.947L4.91 3.915ZM22.369.514A22.432 22.432 0 0 0 17.11 0L5.791.386 22.37.514Zm-4.859 22c-.133.164-.28.317-.44.457a4.68 4.68 0 0 1-1.79.95l9.552.386a8.542 8.542 0 0 0 .938-2.102l-8.26.309ZM2.39 16.722l-.041.237 7.534.303.145-.725h4.49c1.333 0 2.329.237 2.977.704.135.101.258.217.368.345l8.156.323a5.52 5.52 0 0 0-.798-2.03l-22.83.843Zm6.238 6.932.16-.812-7.652.288-.047.221 7.54.303ZM1.976 18.86l-.047.22 7.54.304.155-.812-7.648.288Z"/><path d="M18.413 20.36a4.595 4.595 0 0 1-.477 1.542l7.834.313c.199-.692.32-1.404.363-2.122l-7.72.267ZM138.045 3.315c2.033 0 4.356.113 6.015 1.793a5.207 5.207 0 0 1 1.203 2.023 5.17 5.17 0 0 1 .187 2.34c-.172 1.937-.778 3.772-2.417 5.2a9.557 9.557 0 0 1-5.366 2.159l5.506 10.92h-3.329l-5.226-10.7h-.705l-2.272 10.7h-2.737l5.185-24.43 3.956-.005Zm-3.629 11.305h1.737c1.145 0 3.22-.077 4.666-1.284a5.125 5.125 0 0 0 1.774-3.464c.165-1.87-.669-2.857-1.369-3.294-.7-.437-2.308-.699-3.412-.699h-1.556l-1.84 8.741Zm26.392 9.245a12.254 12.254 0 0 1-3.111 3.15 8.448 8.448 0 0 1-4.542 1.172c-1.81 0-3.516-.329-4.895-1.907-.84-.95-1.799-2.636-1.556-5.457a10.014 10.014 0 0 1 3.2-6.521 7.724 7.724 0 0 1 2.559-1.613 7.77 7.77 0 0 1 2.989-.51c2.592 0 4.018.915 4.827 1.794 1.011 1.136 1.862 3.222 1.146 6.706h-11.926c-.228 2.159.405 3.366 1.011 4.029a3.735 3.735 0 0 0 2.93 1.136 5.373 5.373 0 0 0 3.033-.843 8.653 8.653 0 0 0 2.194-2.349l2.141 1.213Zm-1.742-5.365a4.112 4.112 0 0 0-1.037-3.006 3.697 3.697 0 0 0-2.728-.95 4.82 4.82 0 0 0-3.474 1.284 6.402 6.402 0 0 0-1.716 2.672h8.955Zm8.135-5.956h2.66l-.378 1.758a7.954 7.954 0 0 1 1.68-1.429 5.667 5.667 0 0 1 2.909-.694 4.677 4.677 0 0 1 1.913.286c.61.228 1.165.58 1.628 1.035.944 1.028 1.037 2.266.918 3.402-.1.85-.249 1.694-.446 2.528l-1.789 8.32h-2.66l1.623-7.585c.13-.622.389-1.906.451-2.6a2.871 2.871 0 0 0-.575-2.272 2.752 2.752 0 0 0-2.074-.77 4.064 4.064 0 0 0-2.826 1.063c-1.131 1.064-1.587 2.858-1.888 4.214l-1.711 7.95h-2.66l3.225-15.206Zm19.559 2.421-2.722 12.785h-2.66l2.696-12.785h-1.623l.519-2.42h1.623l1.146-5.494h2.665l-1.151 5.493h2.66l-.519 2.42h-2.634Zm3.319 10.072a2.14 2.14 0 0 1 1.493-.586 1.57 1.57 0 0 1 1.182.473 1.63 1.63 0 0 1 .368 1.249 2.122 2.122 0 0 1-.829 1.465 2.218 2.218 0 0 1-1.374.472 1.6 1.6 0 0 1-1.214-.473 1.533 1.533 0 0 1-.342-1.172 2.203 2.203 0 0 1 .716-1.428ZM200.9 12.544h2.665l-.368 1.65a4.82 4.82 0 0 1 1.68-1.465 4.56 4.56 0 0 1 2.266-.55c.781-.027 1.55.19 2.199.622l-1.763 2.38a2.333 2.333 0 0 0-1.556-.514 3.006 3.006 0 0 0-2.105.801c-1.162 1.028-1.556 2.75-1.893 4.25l-1.69 8.032h-2.66l3.225-15.206Zm11.859 8.012a17.199 17.199 0 0 0-.322 1.978c-.088.992-.052 1.83.7 2.529a3.26 3.26 0 0 0 2.224.77 3.938 3.938 0 0 0 2.557-.92c.964-.878 1.27-2.23 1.644-3.951l1.778-8.428H224l-1.841 8.736c-.435 2.015-.866 3.952-2.359 5.345a6.664 6.664 0 0 1-4.573 1.577c-2.074 0-3.428-.514-4.351-1.393-1.089-1.027-1.312-2.307-1.172-3.848.063-.73.317-1.938.452-2.6l1.648-7.802h2.66l-1.705 8.007Z"/></g><defs><clipPath id="a"><path fill="#fff" d="M0 0h224v37H0z"/></clipPath></defs></svg>